<svg class="board" viewBox="0 0 18288000 10287000" xmlns="http://www.w3.org/2000/svg" xmlns:xlink="http://www.w3.org/1999/xlink">
  <defs>
    <clipPath id="clip_s5_sh0"><path d="M0 0 L19792055 0 L19792055 12370034 L0 12370034 L0 0 Z"/></clipPath><clipPath id="clip_s5_sh1"><path d="M0 0 L345005 0 L345005 581061 L0 581061 L0 0 Z"/></clipPath><clipPath id="clip_s5_sh2"><path d="M0 0 L345005 0 L345005 581061 L0 581061 L0 0 Z"/></clipPath><clipPath id="clip_s5_sh3"><path d="M0 0 L345005 0 L345005 581061 L0 581061 L0 0 Z"/></clipPath><clipPath id="clip_s5_sh4"><path d="M0 0 L345005 0 L345005 581061 L0 581061 L0 0 Z"/></clipPath><clipPath id="clip_s5_sh5"><path d="M0 0 L345005 0 L345005 581061 L0 581061 L0 0 Z"/></clipPath><clipPath id="clip_s5_sh6"><path d="M0 0 L345005 0 L345005 581061 L0 581061 L0 0 Z"/></clipPath><clipPath id="clip_s5_sh7"><path d="M0 0 L430615 0 L430615 1339693 L0 1339693 L0 0 Z"/></clipPath>
  </defs>
  <g class="shape locked" data-slide="5" data-sh="bg" data-sid="bg" data-x="0" data-y="0" data-w="18288000" data-h="10287000" data-rot="0" transform="translate(0 0)"><image href="assets/img_d5fd24f21a0624fb.png" xlink:href="assets/img_d5fd24f21a0624fb.png" x="0" y="0" width="18288000" height="10287000" preserveAspectRatio="xMidYMid slice"/></g><g class="shape draggable" data-slide="5" data-sh="1" data-sid="3" data-x="3931633" data-y="3336184" data-w="345005" data-h="581061" data-rot="0.0" transform="translate(3931633 3336184)"><image href="assets/img_5eb1fa520e64589f.png" xlink:href="assets/img_5eb1fa520e64589f.png" width="345005" height="581061" preserveAspectRatio="none" clip-path="url(#clip_s5_sh1)"/></g><g class="shape draggable" data-slide="5" data-sh="2" data-sid="4" data-x="4374851" data-y="3336184" data-w="345005" data-h="581061" data-rot="0.0" transform="translate(4374851 3336184)"><image href="assets/img_5eb1fa520e64589f.png" xlink:href="assets/img_5eb1fa520e64589f.png" width="345005" height="581061" preserveAspectRatio="none" clip-path="url(#clip_s5_sh2)"/></g><g class="shape draggable" data-slide="5" data-sh="3" data-sid="5" data-x="4848478" data-y="3336184" data-w="345005" data-h="581061" data-rot="0.0" transform="translate(4848478 3336184)"><image href="assets/img_5eb1fa520e64589f.png" xlink:href="assets/img_5eb1fa520e64589f.png" width="345005" height="581061" preserveAspectRatio="none" clip-path="url(#clip_s5_sh3)"/></g><g class="shape draggable" data-slide="5" data-sh="4" data-sid="6" data-x="5288733" data-y="3336184" data-w="345005" data-h="581061" data-rot="0.0" transform="translate(5288733 3336184)"><image href="assets/img_5eb1fa520e64589f.png" xlink:href="assets/img_5eb1fa520e64589f.png" width="345005" height="581061" preserveAspectRatio="none" clip-path="url(#clip_s5_sh4)"/></g><g class="shape draggable" data-slide="5" data-sh="5" data-sid="7" data-x="5728988" data-y="3336184" data-w="345005" data-h="581061" data-rot="0.0" transform="translate(5728988 3336184)"><image href="assets/img_5eb1fa520e64589f.png" xlink:href="assets/img_5eb1fa520e64589f.png" width="345005" height="581061" preserveAspectRatio="none" clip-path="url(#clip_s5_sh5)"/></g><g class="shape draggable" data-slide="5" data-sh="6" data-sid="8" data-x="6169243" data-y="3336184" data-w="345005" data-h="581061" data-rot="0.0" transform="translate(6169243 3336184)"><image href="assets/img_5eb1fa520e64589f.png" xlink:href="assets/img_5eb1fa520e64589f.png" width="345005" height="581061" preserveAspectRatio="none" clip-path="url(#clip_s5_sh6)"/></g></svg>